# xmcd
#
# Track frame offsets: 
#        150
#        25215
#        42636
#        59503
#        78112
#        101006
#        118282
#        134291
#        150114
#        167802
#        186225
#        201710
#
# Disc length: 2899 seconds
#
# Revision: 0
# Processed by: cddbd v1.5.2PL0 Copyright (c) Steve Scherf et al.
# Submitted via: ExactAudioCopyFreeDBPlugin 1.0
#
DISCID=a80b510c
DTITLE=Musiq Soulchild - Feel the Real
DYEAR=2017
DGENRE=R&B
TTITLE0=Feel the Real (feat. Marsha Ambrosius)
TTITLE1=Benefits
TTITLE2=Serendipity (feat. Willie Hyn)
TTITLE3=Sooner or Later
TTITLE4=My Bad (feat. Willie Hyn)
TTITLE5=Start Over
TTITLE6=Hard Liquor
TTITLE7=Shudawudacuda
TTITLE8=Broken Hearts
TTITLE9=Love Me Back
TTITLE10=I'm Good
TTITLE11=Jussa Lil Bih (feat. BLAQGxLD)
EXTD=
EXTT0=
EXTT1=
EXTT2=
EXTT3=
EXTT4=
EXTT5=
EXTT6=
EXTT7=
EXTT8=
EXTT9=
EXTT10=
EXTT11=
PLAYORDER=
